{"title":"Broken 2013 DVDrip English Klam","uid":9451706,"size":1606190612,"categoryP":"video","categoryS":"movies","magnet":"?xt=urn:btih:4eea633bbf09eee2cc6d79183651025207ab52b0&amp;dn=Broken+2013+DVDrip+English+Klam&amp;tr=udp%3A%2F%2Ftracker.openbittorrent.com%3A80&amp;tr=udp%3A%2F%2Fopen.demonii.com%3A1337&amp;tr=udp%3A%2F%2Ftracker.coppersurfer.tk%3A6969&amp;tr=udp%3A%2F%2Fexodus.desync.com%3A6969","seeders":1,"leechers":0,"uploader":"Klambake","files":-1,"time":1389193796,"description":"[img] http://imageshack.com/a/img819/8757/qwy1.jpg[/img]\n\nWith: Tim Roth, Cillian Murphy and Eloise Laurence\n\nSkunk is 11, heeft diabetes en is een vrij coole tiener. De zomervakantie is pas begonnen en haar dagen zijn gevuld met hoop. Tot de heer Oswald, de lelijke man die aan de overkant woont, haar lieve maar onstabiele buurjongen Rick in elkaar slaat nadat zijn dochter de jongen beschuldigt van verkrachting. Met een klap wordt Skunks onschuld weggevaagd. Haar huis, haar buurt, haar school zijn allemaal verraderlijke omgevingen geworden waar de gelukkige zekerheden van de jeugd plaats maken voor een met angst gevulde twijfel, en een complexe, gebroken wereld vervult haar toekomst. Skunk zoekt troost in de laatste plaats waar ze weet dat ze die kan vinden - in de onuitgesproken vriendschap met de lieve, beschadigde Rick. Ze vervalt in chaos, maar even onverwacht krijgt ze de keuze toegeworpen. De keuze om in deze plaats die haar nooit was beloofd te blijven, of deze voorgoed te verlaten - de keuze om te leven of te sterven.\n\nThe story of a young girl in North London whose life changes after witnessing a violent attack. \n &lt;a href=&quot;\nhttp://www.imdb.com/title/tt1441940&quot; rel=&quot;nofollow&quot; target=&quot;_NEW&quot;&gt;\nhttp://www.imdb.com/title/tt1441940&lt;/a&gt;\t\n\n--------------------- Dutch Friends 4ever ---------------------\n---------------------------------------------------------------\n- Bezoek ook eens mijn vrienden op: &lt;a href=&quot; http://www.Film-Test.nl&quot; rel=&quot;nofollow&quot; target=&quot;_NEW&quot;&gt; http://www.Film-Test.nl&lt;/a&gt; --\n----- voor mijn Nederlandse Sync. ondertitels ---- en meer ----\n------- http://www.Film-Test.nl ---- Over Films en meer -------\n---------------------------------------------------------------\n\nGeneral:\n\nComplete name                    : BrokenBroken.avi\nFormat                           : AVI\nFormat/Info                      : Audio Video Interleave\nFile size                        : 1.50 GiB\nDuration                         : 1h 27mn\nOverall bit rate                 : 2 458 Kbps\n\nVideo:\n\nFormat                           : MPEG-4 Visual\nFormat profile                   : Simple@L3\nFormat settings, BVOP            : No\nFormat settings, QPel            : No\nFormat settings, GMC             : No warppoints\nFormat settings, Matrix          : Default (H.263)\nCodec ID                         : XVID\nCodec ID/Hint                    : XviD\nDuration                         : 1h 27mn\nBit rate                         : 1 999 Kbps\nWidth                            : 704 pixels\nHeight                           : 396 pixels\nDisplay aspect ratio             : 16:9\nFrame rate                       : 25.000 fps\nColor space                      : YUV\nChroma subsampling               : 4:2:0\nBit depth                        : 8 bits\nScan type                        : Progressive\nCompression mode                 : Lossy\nBits/(Pixel*Frame)               : 0.287\nStream size                      : 1.22 GiB (81%)\nWriting library                  : XviD 1.1.2 (UTC 2006-11-01)\n\nAudio:\n\nFormat                           : AC-3\nFormat/Info                      : Audio Coding 3\nMode extension                   : CM (complete main)\nCodec ID                         : 2000\nDuration                         : 1h 27mn\nBit rate mode                    : Constant\nBit rate                         : 448 Kbps\nChannel(s)                       : 6 channels\nChannel positions                : Front: L C R, Side: L R, LFE\nSampling rate                    : 48.0 KHz\nBit depth                        : 16 bits\nCompression mode                 : Lossy\nStream size                      : 279 MiB (18%)\nAlignment                        : Aligned on interleaves\nInterleave, duration             : 32 ms (0.80 video frame)\nInterleave, preload duration     : 32 ms","torrent":{"xt":"urn:btih:4eea633bbf09eee2cc6d79183651025207ab52b0","amp;dn":"Broken+2013+DVDrip+English+Klam","amp;tr":["udp%3A%2F%2Ftracker.openbittorrent.com%3A80","udp%3A%2F%2Fopen.demonii.com%3A1337","udp%3A%2F%2Ftracker.coppersurfer.tk%3A6969","udp%3A%2F%2Fexodus.desync.com%3A6969"],"infoHash":"4eea633bbf09eee2cc6d79183651025207ab52b0","infoHashBuffer":{"type":"Buffer","data":[78,234,99,59,191,9,238,226,204,109,121,24,54,81,2,82,7,171,82,176]},"announce":[],"urlList":[]}}